<?xml version="1.0" encoding="UTF-8" standalone="no"?>
<!DOCTYPE svg PUBLIC "-//W3C//DTD SVG 1.1//EN"
 "http://www.w3.org/Graphics/SVG/1.1/DTD/svg11.dtd">
<!-- Generated by graphviz version 2.43.0 (0)
 -->
<!-- Title: Data Science Process Pages: 1 -->
<svg width="358pt" height="332pt"
 viewBox="0.00 0.00 357.67 332.00" xmlns="http://www.w3.org/2000/svg" xmlns:xlink="http://www.w3.org/1999/xlink">
<g id="graph0" class="graph" transform="scale(1 1) rotate(0) translate(4 328)">
<title>Data Science Process</title>
<polygon fill="white" stroke="transparent" points="-4,4 -4,-328 353.67,-328 353.67,4 -4,4"/>
<!-- A -->
<g id="node1" class="node">
<title>A</title>
<ellipse fill="none" stroke="black" cx="174.83" cy="-306" rx="51.99" ry="18"/>
<text text-anchor="middle" x="174.83" y="-302.3" font-family="Times,serif" font-size="14.00">Get Data</text>
</g>
<!-- B -->
<g id="node2" class="node">
<title>B</title>
<ellipse fill="none" stroke="black" cx="174.83" cy="-234" rx="174.67" ry="18"/>
<text text-anchor="middle" x="174.83" y="-230.3" font-family="Times,serif" font-size="14.00">Clean, Prepare, &amp; Manipulate Data</text>
</g>
<!-- A&#45;&#45;B -->
<g id="edge1" class="edge">
<title>A&#45;&#45;B</title>
<path fill="none" stroke="black" d="M174.83,-287.7C174.83,-276.85 174.83,-262.92 174.83,-252.1"/>
</g>
<!-- C -->
<g id="node3" class="node">
<title>C</title>
<ellipse fill="none" stroke="black" cx="174.83" cy="-162" rx="66.89" ry="18"/>
<text text-anchor="middle" x="174.83" y="-158.3" font-family="Times,serif" font-size="14.00">Train Model</text>
</g>
<!-- B&#45;&#45;C -->
<g id="edge2" class="edge">
<title>B&#45;&#45;C</title>
<path fill="none" stroke="black" d="M174.83,-215.7C174.83,-204.85 174.83,-190.92 174.83,-180.1"/>
</g>
<!-- D -->
<g id="node4" class="node">
<title>D</title>
<ellipse fill="none" stroke="black" cx="174.83" cy="-90" rx="55.49" ry="18"/>
<text text-anchor="middle" x="174.83" y="-86.3" font-family="Times,serif" font-size="14.00">Test Data</text>
</g>
<!-- C&#45;&#45;D -->
<g id="edge3" class="edge">
<title>C&#45;&#45;D</title>
<path fill="none" stroke="black" d="M174.83,-143.7C174.83,-132.85 174.83,-118.92 174.83,-108.1"/>
</g>
<!-- E -->
<g id="node5" class="node">
<title>E</title>
<ellipse fill="none" stroke="black" cx="174.83" cy="-18" rx="49.29" ry="18"/>
<text text-anchor="middle" x="174.83" y="-14.3" font-family="Times,serif" font-size="14.00">Improve</text>
</g>
<!-- D&#45;&#45;E -->
<g id="edge4" class="edge">
<title>D&#45;&#45;E</title>
<path fill="none" stroke="black" d="M174.83,-71.7C174.83,-60.85 174.83,-46.92 174.83,-36.1"/>
</g>
</g>
</svg>